<svg id="Capa_1" data-name="Capa 1" xmlns="http://www.w3.org/2000/svg" viewBox="0 0 139.88 258.74"><defs><style>.cls-1{fill:#db9ca1;}</style></defs><title>INSTAGRAM</title><path class="cls-1" d="M604.69,420.1l-33.56-.05c-37.69,0-62.06,25-62.06,63.68v29.36H475.33a5.26,5.26,0,0,0-5.27,5.27v42.55a5.27,5.27,0,0,0,5.27,5.26h33.74V673.52a5.28,5.28,0,0,0,5.28,5.27h44a5.29,5.29,0,0,0,5.29-5.27V566.17h39.44a5.26,5.26,0,0,0,5.27-5.26l0-42.55a5.35,5.35,0,0,0-1.55-3.73,5.27,5.27,0,0,0-3.74-1.54H563.64V488.2c0-12,2.85-18,18.43-18h22.6a5.27,5.27,0,0,0,5.27-5.27V425.39a5.28,5.28,0,0,0-5.25-5.29Zm0,0" transform="translate(-470.06 -420.05)"/></svg>