<svg id="Capa_1" data-name="Capa 1" xmlns="http://www.w3.org/2000/svg" viewBox="0 0 265.51 265.51"><defs><style>.cls-1{fill:#db9ca1;}</style></defs><title>INSTAGRAM</title><path class="cls-1" d="M599.48,401.23h-119a73.35,73.35,0,0,0-73.27,73.27v119a73.35,73.35,0,0,0,73.27,73.27h119a73.35,73.35,0,0,0,73.27-73.27v-119a73.35,73.35,0,0,0-73.27-73.27ZM649.2,593.47a49.77,49.77,0,0,1-49.72,49.71h-119a49.77,49.77,0,0,1-49.72-49.71v-119a49.77,49.77,0,0,1,49.72-49.71h119A49.77,49.77,0,0,1,649.2,474.5Zm0,0" transform="translate(-407.25 -401.23)"/><path class="cls-1" d="M540,465.58A68.41,68.41,0,1,0,608.42,534,68.49,68.49,0,0,0,540,465.58Zm0,113.26A44.86,44.86,0,1,1,584.86,534,44.91,44.91,0,0,1,540,578.84Zm0,0" transform="translate(-407.25 -401.23)"/><path class="cls-1" d="M611.29,445.6a17.26,17.26,0,1,0,12.21,5,17.38,17.38,0,0,0-12.21-5Zm0,0" transform="translate(-407.25 -401.23)"/></svg>